<svg preserveAspectRatio="none" overflow="visible" style="display: block;" width="273" height="66" viewBox="0 0 273 66" fill="none" xmlns="http://www.w3.org/2000/svg">
<g id="Union">
<mask id="path-1-inside-1_0_10" fill="white">
<path d="M248.5 0C262.031 3.60784e-06 273 10.969 273 24.5C273 38.031 262.031 49 248.5 49H146.314L136.5 66L126.686 49H24.5C10.969 49 0 38.031 0 24.5C0 10.969 10.969 3.10049e-07 24.5 0H248.5Z"/>
</mask>
<path d="M248.5 0C262.031 3.60784e-06 273 10.969 273 24.5C273 38.031 262.031 49 248.5 49H146.314L136.5 66L126.686 49H24.5C10.969 49 0 38.031 0 24.5C0 10.969 10.969 3.10049e-07 24.5 0H248.5Z" fill="white"/>
<path d="M248.5 0V-1V-1V0ZM248.5 49V50V50V49ZM146.314 49V48H145.737L145.448 48.5L146.314 49ZM136.5 66L135.634 66.5L136.5 68.0001L137.366 66.5L136.5 66ZM126.686 49L127.552 48.5L127.263 48H126.686V49ZM24.5 49V50V50V49ZM24.5 0V-1V-1V0ZM248.5 0V1C261.479 1 272 11.5213 272 24.5H273H274C274 10.4167 262.583 -0.999996 248.5 -1V0ZM273 24.5H272C272 37.4787 261.479 48 248.5 48V49V50C262.583 50 274 38.5833 274 24.5H273ZM248.5 49V48H146.314V49V50H248.5V49ZM146.314 49L145.448 48.5L135.634 65.5L136.5 66L137.366 66.5L147.18 49.5L146.314 49ZM136.5 66L137.366 65.5L127.552 48.5L126.686 49L125.82 49.5L135.634 66.5L136.5 66ZM126.686 49V48H24.5V49V50H126.686V49ZM24.5 49V48C11.5213 48 1 37.4787 1 24.5H0H-1C-1 38.5833 10.4167 50 24.5 50V49ZM0 24.5H1C1 11.5213 11.5213 1 24.5 1V0V-1C10.4167 -1 -1 10.4167 -1 24.5H0ZM24.5 0V1H248.5V0V-1H24.5V0Z" fill="black" mask="url(#path-1-inside-1_0_10)"/>
</g>
</svg>
